<?xml version="1.0" encoding="utf-8"?>
<!-- Generator: Adobe Illustrator 24.0.3, SVG Export Plug-In . SVG Version: 6.00 Build 0)  -->
<svg version="1.1" id="Capa_1" xmlns="http://www.w3.org/2000/svg" xmlns:xlink="http://www.w3.org/1999/xlink" x="0px" y="0px"
	 viewBox="0 0 1490 595.3" style="enable-background:new 0 0 1490 595.3;" xml:space="preserve">
<style type="text/css">
	.st0{fill:#5C21A7;}
	.st1{fill:#BF1D95;}
	.st2{stroke:#000000;stroke-width:4;stroke-miterlimit:10;}
</style>
<path class="st0" d="M259.6,264.2c-3.9-0.8-7.9,0.5-10.5,3.5c-3.5,4.1-2.3,9.2-2.2,9.7c-0.2,36.3-0.4,72.6-0.5,108.9
	c0.2,0.4,0.5,1.2,1.2,1.8c0.6,0.5,1.1,0.8,1.5,1c15,0,30.1,0,45.1,0c0.4-0.2,0.9-0.5,1.5-0.9c0.7-0.6,1.2-1.2,1.5-1.7
	c-0.2-24.7-0.4-49.3-0.6-74c-0.2-0.8,0.1-1.6,0.7-2.1c0.6-0.5,1.5-0.6,2.2-0.3c9.7,0,19.4-0.1,29.1-0.1l53.2,79.1h57
	c0.2-0.2,0.4-0.6,0.5-1.2c0.1-1-0.4-1.8-0.5-1.9c-18.6-26.3-37.2-52.6-55.8-78.9c-0.1-0.2-0.4-0.7-0.4-1.5c0.1-0.8,0.5-1.3,0.6-1.4
	c28.5-11.2,48.5-36.5,50.8-64.8c3-36.4-23.6-72.6-64.1-82c-44.3-0.5-88.5-1.1-132.8-1.6c-0.2,0-2.3-0.3-3.8,1.4
	c-1.2,1.3-1.4,3.3-0.5,5c5.6,12.4,11.2,24.8,16.8,37.2c0.3,0.6,1,1.7,2.2,2.7c0.9,0.7,1.8,1.1,2.4,1.3c35.3,0,70.5,0,105.8,0
	c2.2,0.5,13.2,3.3,20,14.1c1.6,2.6,6.8,11.7,4.3,23.1c-0.5,2.5-3.3,13.4-13.6,19c-4,2.2-7.8,2.9-10.3,3.1
	C326.8,263.2,293.2,263.7,259.6,264.2z"/>
<g>
	<path class="st0" d="M139.8,147.1c3-6.1,10-8.8,15.8-6.5c6.4,2.5,9.6,10.5,6.3,17.3c-10.4,16.8-30.8,55.1-32.5,107.9
		c-1.8,56,18.5,97.4,28.2,114.6c0.6,0.6,6.2,6.7,4.5,14.9c-0.2,0.8-2.2,10.1-9.9,11.6c-5.6,1.1-12-2.4-14.7-8.8
		c-11.1-17.9-35.2-62.3-35.2-123.7C102.4,210.5,128.5,164.7,139.8,147.1z"/>
	<path class="st1" d="M191.5,190.9c-0.3-0.3-2.5-3-6.1-3c-2.9,0-5.5,1.7-6.9,4.3c-7.3,12.9-20.5,40.2-21.2,77.3
		c-0.8,39.8,13,69.3,20.2,82.3c2.4,2.9,4.7,3.3,5.6,3.5c5.2,0.7,9.6-5.2,11.5-7.8c1.7-2.3,2.7-4.5,3.3-6c0.3-0.5,0.8-1.5,0.7-3
		c0-1.4-0.5-2.4-0.7-2.9c-5.7-12.1-15-36.2-14-67.8c1-28,9.7-49.4,15.5-61c0.2-0.6,0.4-1.5,0.4-2.6c0-2.1-0.9-3.7-3.9-7.7
		C194.8,194.9,193.3,193,191.5,190.9z"/>
</g>
<g>
	<path class="st0" d="M528.8,147.1c-3-6.1-10-8.8-15.8-6.5c-6.4,2.5-9.6,10.5-6.3,17.3c10.4,16.8,30.8,55.1,32.5,107.9
		c1.8,56-18.5,97.4-28.2,114.6c-0.6,0.6-6.2,6.7-4.5,14.9c0.2,0.8,2.2,10.1,9.9,11.6c5.6,1.1,12-2.4,14.7-8.8
		c11.1-17.9,35.2-62.3,35.2-123.7C566.3,210.5,540.1,164.7,528.8,147.1z"/>
	<path class="st1" d="M477.1,190.9c0.3-0.3,2.5-3,6.1-3c2.9,0,5.5,1.7,6.9,4.3c7.3,12.9,20.5,40.2,21.2,77.3
		c0.8,39.8-13,69.3-20.2,82.3c-2.4,2.9-4.7,3.3-5.6,3.5c-5.2,0.7-9.6-5.2-11.5-7.8c-1.7-2.3-2.7-4.5-3.3-6c-0.3-0.5-0.8-1.5-0.7-3
		c0-1.4,0.5-2.4,0.7-2.9c5.7-12.1,15-36.2,14-67.8c-1-28-9.7-49.4-15.5-61c-0.2-0.6-0.4-1.5-0.4-2.6c0-2.1,0.9-3.7,3.9-7.7
		C473.8,194.9,475.3,193,477.1,190.9z"/>
</g>
<g>
	<path class="st2" d="M638.5,328V223.1h40.3c7.9,0,14.5,1.4,20,4.2c5.5,2.8,9.7,6.8,12.6,11.9c2.9,5.1,4.3,11.1,4.3,18
		c0,6.9-1.5,12.9-4.4,17.9c-2.9,5-7.2,8.8-12.7,11.5c-5.6,2.7-12.3,4-20.3,4H651v-17.4h23.9c4.3,0,7.9-0.6,10.7-1.8
		c2.8-1.2,4.9-3,6.2-5.4c1.4-2.4,2.1-5.3,2.1-8.8c0-3.6-0.7-6.6-2.1-9c-1.4-2.4-3.5-4.3-6.3-5.5c-2.8-1.3-6.4-1.9-10.7-1.9h-15.2
		V328H638.5z M696,328l-25.2-47.7h22.9l25.6,47.7H696z"/>
	<path class="st2" d="M755.7,328V223.1h69.1v17.8h-47.9v25.3h44.3v17.5h-44.3v26.4h48.1V328H755.7z"/>
	<path class="st2" d="M903.7,329.5c-8.3,0-15.5-1.3-21.6-3.9c-6.1-2.6-10.9-6.4-14.3-11.5c-3.4-5.1-5.2-11.3-5.4-18.7H883
		c0.3,3.5,1.3,6.5,3.1,8.8c1.8,2.4,4.2,4.1,7.2,5.3c3,1.2,6.4,1.8,10.2,1.8c3.8,0,7.1-0.6,9.9-1.7c2.8-1.1,5-2.7,6.5-4.7
		s2.4-4.4,2.4-7c0-2.4-0.7-4.4-2.1-6c-1.4-1.6-3.4-3-6.1-4.2c-2.6-1.2-5.8-2.2-9.6-3.1l-11.4-2.9c-8.7-2.2-15.6-5.6-20.5-10.2
		c-4.9-4.6-7.4-10.7-7.4-18.3c0-6.3,1.7-11.9,5-16.6c3.3-4.7,7.9-8.4,13.8-11.1c5.8-2.6,12.5-3.9,20-3.9c7.6,0,14.3,1.3,20,4
		c5.7,2.7,10.1,6.3,13.3,11.1s4.8,10.2,4.9,16.3h-20.4c-0.4-4.2-2.1-7.5-5.3-9.8c-3.2-2.3-7.4-3.5-12.6-3.5c-3.6,0-6.6,0.5-9.1,1.5
		c-2.5,1-4.5,2.5-5.8,4.3c-1.3,1.8-2,3.9-2,6.3c0,2.6,0.8,4.7,2.3,6.4c1.5,1.7,3.6,3.1,6.1,4.2c2.5,1.1,5.2,1.9,8.1,2.6l9.4,2.3
		c4.3,1,8.4,2.3,12.1,4c3.7,1.7,7,3.8,9.8,6.2s5,5.4,6.5,8.8c1.5,3.4,2.3,7.3,2.3,11.7c0,6.3-1.6,11.9-4.7,16.6
		c-3.1,4.7-7.7,8.4-13.7,11C919.2,328.2,912.1,329.5,903.7,329.5z"/>
	<path class="st2" d="M1025.3,329.5c-8.5,0-15.9-1.6-22.3-4.8c-6.4-3.2-11.4-7.7-14.9-13.4c-3.5-5.7-5.3-12.4-5.3-20.1v-68.1h21.1
		v66.3c0,4.1,0.9,7.7,2.7,10.9c1.8,3.2,4.3,5.7,7.5,7.5c3.2,1.8,7,2.7,11.3,2.7c4.3,0,8.1-0.9,11.3-2.7c3.2-1.8,5.7-4.3,7.5-7.5
		c1.8-3.2,2.7-6.8,2.7-10.9v-66.3h21.2v68.1c0,7.7-1.8,14.3-5.3,20.1c-3.6,5.7-8.5,10.2-14.9,13.4
		C1041.4,327.9,1033.9,329.5,1025.3,329.5z"/>
	<path class="st2" d="M1110.6,328V223.1h69.1v17.8h-47.9v25.3h44.3v17.5h-44.3v26.4h48.1V328H1110.6z"/>
	<path class="st2" d="M1220.8,328V223.1h23.6l32.6,53.1c1.7,2.7,3.3,5.7,5.1,8.9c1.7,3.2,3.5,6.7,5.2,10.6c1.8,3.9,3.5,8.3,5.3,13.2
		h-2.1c-0.3-3.9-0.6-8-0.9-12.5c-0.3-4.4-0.5-8.6-0.7-12.7c-0.2-4-0.3-7.5-0.3-10.3v-50.3h21.6V328h-23.6l-29.7-48.2
		c-2.2-3.6-4.2-7.1-6-10.5c-1.8-3.4-3.8-7.2-5.8-11.3c-2-4.1-4.4-9-7.2-14.8h2.7c0.3,5.1,0.6,9.9,0.8,14.6c0.3,4.6,0.5,8.9,0.7,12.6
		c0.2,3.8,0.2,6.9,0.2,9.3V328H1220.8z"/>
	<path class="st2" d="M1347,328l35.3-104.9h27.7l36.2,104.9h-23.5l-16.6-50.6c-2-6.5-4-13.7-6.1-21.4c-2.1-7.8-4.2-16.3-6.5-25.5
		h4.6c-2.2,9.2-4.3,17.8-6.2,25.6c-1.9,7.8-3.8,14.9-5.7,21.3l-15.9,50.6H1347z M1369,303.6v-16.8h55.1v16.8H1369z"/>
</g>
</svg>
